<?xml version="1.0" encoding="UTF-8" standalone="no"?>
<!DOCTYPE svg PUBLIC "-//W3C//DTD SVG 1.1//EN"
 "http://www.w3.org/Graphics/SVG/1.1/DTD/svg11.dtd">
<!-- Generated by graphviz version 14.1.2 (20260124.0452)
 -->
<!-- Title: SystemArchitecture Pages: 1 -->
<svg width="1251pt" height="495pt"
 viewBox="0.00 0.00 1251.00 495.00" xmlns="http://www.w3.org/2000/svg" xmlns:xlink="http://www.w3.org/1999/xlink">
<g id="graph0" class="graph" transform="scale(1 1) rotate(0) translate(18 477.39)">
<title>SystemArchitecture</title>
<polygon fill="white" stroke="none" points="-18,18 -18,-477.39 1232.6,-477.39 1232.6,18 -18,18"/>
<!-- ui -->
<g id="node1" class="node">
<title>ui</title>
<path fill="#f7f9fc" stroke="#334155" d="M69.42,-202.78C69.42,-202.78 12,-202.78 12,-202.78 6,-202.78 0,-196.78 0,-190.78 0,-190.78 0,-166 0,-166 0,-160 6,-154 12,-154 12,-154 69.42,-154 69.42,-154 75.42,-154 81.42,-160 81.42,-166 81.42,-166 81.42,-190.78 81.42,-190.78 81.42,-196.78 75.42,-202.78 69.42,-202.78"/>
<text xml:space="preserve" text-anchor="middle" x="40.71" y="-180.84" font-family="Arial" font-size="14.00">React UI</text>
<text xml:space="preserve" text-anchor="middle" x="40.71" y="-165.09" font-family="Arial" font-size="14.00">Vite build</text>
</g>
<!-- api -->
<g id="node2" class="node">
<title>api</title>
<path fill="#f7f9fc" stroke="#334155" d="M276.59,-202.78C276.59,-202.78 179.42,-202.78 179.42,-202.78 173.42,-202.78 167.42,-196.78 167.42,-190.78 167.42,-190.78 167.42,-166 167.42,-166 167.42,-160 173.42,-154 179.42,-154 179.42,-154 276.59,-154 276.59,-154 282.59,-154 288.59,-160 288.59,-166 288.59,-166 288.59,-190.78 288.59,-190.78 288.59,-196.78 282.59,-202.78 276.59,-202.78"/>
<text xml:space="preserve" text-anchor="middle" x="228.01" y="-180.84" font-family="Arial" font-size="14.00">Spring Boot API</text>
<text xml:space="preserve" text-anchor="middle" x="228.01" y="-165.09" font-family="Arial" font-size="14.00">Kotlin</text>
</g>
<!-- ui&#45;&gt;api -->
<g id="edge1" class="edge">
<title>ui&#45;&gt;api</title>
<path fill="none" stroke="#64748b" d="M81.92,-178.39C104.1,-178.39 132.26,-178.39 157.86,-178.39"/>
<polygon fill="#64748b" stroke="#64748b" points="157.65,-181.19 165.65,-178.39 157.65,-175.59 157.65,-181.19"/>
<text xml:space="preserve" text-anchor="middle" x="124.42" y="-180.84" font-family="Arial" font-size="14.00">REST</text>
</g>
<!-- db -->
<g id="node3" class="node">
<title>db</title>
<path fill="#f7f9fc" stroke="#334155" d="M595.89,-459.39C595.89,-459.39 519.72,-459.39 519.72,-459.39 513.72,-459.39 507.72,-453.39 507.72,-447.39 507.72,-447.39 507.72,-435.39 507.72,-435.39 507.72,-429.39 513.72,-423.39 519.72,-423.39 519.72,-423.39 595.89,-423.39 595.89,-423.39 601.89,-423.39 607.89,-429.39 607.89,-435.39 607.89,-435.39 607.89,-447.39 607.89,-447.39 607.89,-453.39 601.89,-459.39 595.89,-459.39"/>
<text xml:space="preserve" text-anchor="middle" x="557.8" y="-435.96" font-family="Arial" font-size="14.00">PostgreSQL</text>
</g>
<!-- api&#45;&gt;db -->
<g id="edge2" class="edge">
<title>api&#45;&gt;db</title>
<path fill="none" stroke="#64748b" d="M242.86,-203.24C257.96,-228.85 283.97,-268.96 313.59,-297.39 370.43,-351.95 451.64,-394.72 504.3,-419.02"/>
<polygon fill="#64748b" stroke="#64748b" points="503,-421.5 511.44,-422.28 505.32,-416.41 503,-421.5"/>
<text xml:space="preserve" text-anchor="middle" x="385.59" y="-398.22" font-family="Arial" font-size="14.00">JPA / Flyway</text>
</g>
<!-- tdarr -->
<g id="node4" class="node">
<title>tdarr</title>
<path fill="#f7f9fc" stroke="#334155" d="M595.51,-82.39C595.51,-82.39 520.09,-82.39 520.09,-82.39 514.09,-82.39 508.09,-76.39 508.09,-70.39 508.09,-70.39 508.09,-58.39 508.09,-58.39 508.09,-52.39 514.09,-46.39 520.09,-46.39 520.09,-46.39 595.51,-46.39 595.51,-46.39 601.51,-46.39 607.51,-52.39 607.51,-58.39 607.51,-58.39 607.51,-70.39 607.51,-70.39 607.51,-76.39 601.51,-82.39 595.51,-82.39"/>
<text xml:space="preserve" text-anchor="middle" x="557.8" y="-58.97" font-family="Arial" font-size="14.00">Tdarr server</text>
</g>
<!-- api&#45;&gt;tdarr -->
<g id="edge3" class="edge">
<title>api&#45;&gt;tdarr</title>
<path fill="none" stroke="#64748b" d="M261.7,-153.54C276.83,-143.04 295.44,-131.46 313.59,-123.64 374.09,-97.58 448.2,-81.61 498.6,-72.92"/>
<polygon fill="#64748b" stroke="#64748b" points="498.81,-75.72 506.24,-71.63 497.88,-70.2 498.81,-75.72"/>
<text xml:space="preserve" text-anchor="middle" x="385.59" y="-126.09" font-family="Arial" font-size="14.00">Tdarr API</text>
</g>
<!-- optimized -->
<g id="node8" class="node">
<title>optimized</title>
<path fill="#f7f9fc" stroke="#334155" d="M603.39,-311.39C603.39,-311.39 512.22,-311.39 512.22,-311.39 506.22,-311.39 500.22,-305.39 500.22,-299.39 500.22,-299.39 500.22,-287.39 500.22,-287.39 500.22,-281.39 506.22,-275.39 512.22,-275.39 512.22,-275.39 603.39,-275.39 603.39,-275.39 609.39,-275.39 615.39,-281.39 615.39,-287.39 615.39,-287.39 615.39,-299.39 615.39,-299.39 615.39,-305.39 609.39,-311.39 603.39,-311.39"/>
<text xml:space="preserve" text-anchor="middle" x="557.8" y="-287.96" font-family="Arial" font-size="14.00">Optimized root</text>
</g>
<!-- api&#45;&gt;optimized -->
<g id="edge8" class="edge">
<title>api&#45;&gt;optimized</title>
<path fill="none" stroke="#64748b" d="M264.85,-203.11C279.47,-212.35 296.85,-222.31 313.59,-229.39 371.33,-253.8 440.79,-270.96 490.68,-281.32"/>
<polygon fill="#64748b" stroke="#64748b" points="489.87,-284.02 498.27,-282.88 491,-278.53 489.87,-284.02"/>
<text xml:space="preserve" text-anchor="middle" x="385.59" y="-276.12" font-family="Arial" font-size="14.00">promote verified copy</text>
</g>
<!-- archive -->
<g id="node9" class="node">
<title>archive</title>
<path fill="#f7f9fc" stroke="#334155" d="M610.14,-243.78C610.14,-243.78 505.47,-243.78 505.47,-243.78 499.47,-243.78 493.47,-237.78 493.47,-231.78 493.47,-231.78 493.47,-207 493.47,-207 493.47,-201 499.47,-195 505.47,-195 505.47,-195 610.14,-195 610.14,-195 616.14,-195 622.14,-201 622.14,-207 622.14,-207 622.14,-231.78 622.14,-231.78 622.14,-237.78 616.14,-243.78 610.14,-243.78"/>
<text xml:space="preserve" text-anchor="middle" x="557.8" y="-221.84" font-family="Arial" font-size="14.00">Archive root</text>
<text xml:space="preserve" text-anchor="middle" x="557.8" y="-206.09" font-family="Arial" font-size="14.00">retained originals</text>
</g>
<!-- api&#45;&gt;archive -->
<g id="edge9" class="edge">
<title>api&#45;&gt;archive</title>
<path fill="none" stroke="#64748b" d="M288.75,-185.86C343.61,-192.72 425.06,-202.91 483.77,-210.26"/>
<polygon fill="#64748b" stroke="#64748b" points="483.2,-213.01 491.49,-211.22 483.9,-207.45 483.2,-213.01"/>
<text xml:space="preserve" text-anchor="middle" x="385.59" y="-208.58" font-family="Arial" font-size="14.00">move original after pass</text>
</g>
<!-- reports -->
<g id="node10" class="node">
<title>reports</title>
<path fill="#f7f9fc" stroke="#334155" d="M621.01,-162.78C621.01,-162.78 494.59,-162.78 494.59,-162.78 488.59,-162.78 482.59,-156.78 482.59,-150.78 482.59,-150.78 482.59,-126 482.59,-126 482.59,-120 488.59,-114 494.59,-114 494.59,-114 621.01,-114 621.01,-114 627.01,-114 633.01,-120 633.01,-126 633.01,-126 633.01,-150.78 633.01,-150.78 633.01,-156.78 627.01,-162.78 621.01,-162.78"/>
<text xml:space="preserve" text-anchor="middle" x="557.8" y="-140.84" font-family="Arial" font-size="14.00">Monitoring summary</text>
<text xml:space="preserve" text-anchor="middle" x="557.8" y="-125.09" font-family="Arial" font-size="14.00">HTML email reports</text>
</g>
<!-- api&#45;&gt;reports -->
<g id="edge10" class="edge">
<title>api&#45;&gt;reports</title>
<path fill="none" stroke="#64748b" d="M288.99,-167.4C297.24,-166.04 305.62,-164.75 313.59,-163.64 366.41,-156.3 425.96,-150.08 472.91,-145.66"/>
<polygon fill="#64748b" stroke="#64748b" points="472.92,-148.47 480.62,-144.94 472.39,-142.89 472.92,-148.47"/>
<text xml:space="preserve" text-anchor="middle" x="385.59" y="-166.09" font-family="Arial" font-size="14.00">scheduled summary</text>
</g>
<!-- node_worker -->
<g id="node5" class="node">
<title>node_worker</title>
<path fill="#f7f9fc" stroke="#334155" d="M903.93,-94.78C903.93,-94.78 776.01,-94.78 776.01,-94.78 770.01,-94.78 764.01,-88.78 764.01,-82.78 764.01,-82.78 764.01,-58 764.01,-58 764.01,-52 770.01,-46 776.01,-46 776.01,-46 903.93,-46 903.93,-46 909.93,-46 915.93,-52 915.93,-58 915.93,-58 915.93,-82.78 915.93,-82.78 915.93,-88.78 909.93,-94.78 903.93,-94.78"/>
<text xml:space="preserve" text-anchor="middle" x="839.97" y="-72.84" font-family="Arial" font-size="14.00">Tdarr node</text>
<text xml:space="preserve" text-anchor="middle" x="839.97" y="-57.09" font-family="Arial" font-size="14.00">CPU or NVIDIA GPU</text>
</g>
<!-- tdarr&#45;&gt;node_worker -->
<g id="edge4" class="edge">
<title>tdarr&#45;&gt;node_worker</title>
<path fill="none" stroke="#64748b" d="M607.92,-65.44C648.31,-66.31 706.47,-67.55 754.33,-68.58"/>
<polygon fill="#64748b" stroke="#64748b" points="754.18,-71.37 762.24,-68.75 754.3,-65.78 754.18,-71.37"/>
<text xml:space="preserve" text-anchor="middle" x="698.51" y="-70.55" font-family="Arial" font-size="14.00">jobs</text>
</g>
<!-- staging -->
<g id="node7" class="node">
<title>staging</title>
<path fill="#f7f9fc" stroke="#334155" d="M1202.6,-48.78C1202.6,-48.78 1075.43,-48.78 1075.43,-48.78 1069.43,-48.78 1063.43,-42.78 1063.43,-36.78 1063.43,-36.78 1063.43,-12 1063.43,-12 1063.43,-6 1069.43,0 1075.43,0 1075.43,0 1202.6,0 1202.6,0 1208.6,0 1214.6,-6 1214.6,-12 1214.6,-12 1214.6,-36.78 1214.6,-36.78 1214.6,-42.78 1208.6,-48.78 1202.6,-48.78"/>
<text xml:space="preserve" text-anchor="middle" x="1139.02" y="-26.84" font-family="Arial" font-size="14.00">Optional staging root</text>
<text xml:space="preserve" text-anchor="middle" x="1139.02" y="-11.09" font-family="Arial" font-size="14.00">candidate outputs</text>
</g>
<!-- node_worker&#45;&gt;staging -->
<g id="edge6" class="edge">
<title>node_worker&#45;&gt;staging</title>
<path fill="none" stroke="#64748b" d="M916.31,-58.72C958.19,-52.24 1010.41,-44.15 1053.65,-37.46"/>
<polygon fill="#64748b" stroke="#64748b" points="1054.04,-40.23 1061.52,-36.24 1053.18,-34.69 1054.04,-40.23"/>
<text xml:space="preserve" text-anchor="middle" x="989.68" y="-56.65" font-family="Arial" font-size="14.00">write candidates</text>
</g>
<!-- source -->
<g id="node6" class="node">
<title>source</title>
<path fill="#f7f9fc" stroke="#334155" d="M601.14,-391.78C601.14,-391.78 514.47,-391.78 514.47,-391.78 508.47,-391.78 502.47,-385.78 502.47,-379.78 502.47,-379.78 502.47,-355 502.47,-355 502.47,-349 508.47,-343 514.47,-343 514.47,-343 601.14,-343 601.14,-343 607.14,-343 613.14,-349 613.14,-355 613.14,-355 613.14,-379.78 613.14,-379.78 613.14,-385.78 607.14,-391.78 601.14,-391.78"/>
<text xml:space="preserve" text-anchor="middle" x="557.8" y="-369.84" font-family="Arial" font-size="14.00">Storage roots</text>
<text xml:space="preserve" text-anchor="middle" x="557.8" y="-354.09" font-family="Arial" font-size="14.00">original media</text>
</g>
<!-- source&#45;&gt;node_worker -->
<g id="edge5" class="edge">
<title>source&#45;&gt;node_worker</title>
<path fill="none" stroke="#64748b" d="M611.22,-342.61C618.86,-338.02 626.38,-332.92 633.01,-327.39 714.31,-259.63 785.72,-155.5 819.03,-103.02"/>
<polygon fill="#64748b" stroke="#64748b" points="821.35,-104.6 823.24,-96.33 816.61,-101.61 821.35,-104.6"/>
<text xml:space="preserve" text-anchor="middle" x="698.51" y="-306.13" font-family="Arial" font-size="14.00">read originals</text>
</g>
<!-- staging&#45;&gt;api -->
<g id="edge7" class="edge">
<title>staging&#45;&gt;api</title>
<path fill="none" stroke="#64748b" d="M1063.4,-19.29C941.35,-12.24 691.64,-3.24 482.59,-30.39 405.73,-40.37 378.8,-31.51 313.59,-73.39 285.4,-91.5 262.29,-122.18 247.4,-145.71"/>
<polygon fill="#64748b" stroke="#64748b" points="245.08,-144.14 243.27,-152.42 249.85,-147.07 245.08,-144.14"/>
<text xml:space="preserve" text-anchor="middle" x="698.51" y="-17.81" font-family="Arial" font-size="14.00">validate</text>
</g>
</g>
</svg>
